<svg width="24" height="24" viewBox="0 0 24 24" fill="#2d2d2d" xmlns="http://www.w3.org/2000/svg">
<path d="M12 2V8C12 8.53043 12.2107 9.03914 12.5858 9.41421C12.9609 9.78929 13.4696 10 14 10H20V20.5C20 20.8978 19.842 21.2794 19.5607 21.5607C19.2794 21.842 18.8978 22 18.5 22H14V16.75C14 16.0207 13.7103 15.3212 13.1945 14.8055C12.6788 14.2897 11.9793 14 11.25 14V13C11.25 12.6022 11.092 12.2206 10.8107 11.9393C10.5294 11.658 10.1478 11.5 9.75 11.5H4.5C4.325 11.5 4.156 11.53 4 11.585V3.5C4 3.10218 4.15804 2.72064 4.43934 2.43934C4.72064 2.15804 5.10218 2 5.5 2H12ZM13.5 2.5V8C13.5 8.13261 13.5527 8.25979 13.6464 8.35355C13.7402 8.44732 13.8674 8.5 14 8.5H19.5L13.5 2.5ZM3.75 13.25C3.75 13.0511 3.82902 12.8603 3.96967 12.7197C4.11032 12.579 4.30109 12.5 4.5 12.5H9.5C9.69891 12.5 9.88968 12.579 10.0303 12.7197C10.171 12.8603 10.25 13.0511 10.25 13.25V15H10.75C11.3467 15 11.919 15.2371 12.341 15.659C12.7629 16.081 13 16.6533 13 17.25V20.75C13 21.3467 12.7629 21.919 12.341 22.341C11.919 22.7629 11.3467 23 10.75 23H3.25C2.65326 23 2.08097 22.7629 1.65901 22.341C1.23705 21.919 1 21.3467 1 20.75V17.25C1 16.6533 1.23705 16.081 1.65901 15.659C2.08097 15.2371 2.65326 15 3.25 15H3.75V13.25ZM8.75 14H5.25V15H8.75V14ZM3.25 16.5C3.05109 16.5 2.86032 16.579 2.71967 16.7197C2.57902 16.8603 2.5 17.0511 2.5 17.25V20.75C2.5 21.164 2.836 21.5 3.25 21.5H10.75C10.9489 21.5 11.1397 21.421 11.2803 21.2803C11.421 21.1397 11.5 20.9489 11.5 20.75V17.25C11.5 17.0511 11.421 16.8603 11.2803 16.7197C11.1397 16.579 10.9489 16.5 10.75 16.5H3.25Z" fill="#2d2d2d"/>
</svg>
