<svg width="30" height="30" viewBox="0 0 30 30" fill="#2d2d2d" xmlns="http://www.w3.org/2000/svg">
<path d="M15 1.875C7.75195 1.875 1.875 7.75195 1.875 15C1.875 22.248 7.75195 28.125 15 28.125C22.248 28.125 28.125 22.248 28.125 15C28.125 7.75195 22.248 1.875 15 1.875ZM19.5322 15.1904L12.3252 20.4053C12.1699 20.5166 11.9531 20.4053 11.9531 20.2148V18.8408C11.9531 18.542 12.0967 18.2578 12.3398 18.082L16.5996 15L12.3398 11.918C12.0967 11.7422 11.9531 11.4609 11.9531 11.1592V9.78516C11.9531 9.59473 12.1699 9.4834 12.3252 9.59473L19.5322 14.8096C19.6611 14.9033 19.6611 15.0967 19.5322 15.1904Z" fill="#2d2d2d"/>
</svg>
